<svg width="201" height="204" viewBox="0 0 201 204" fill="none" xmlns="http://www.w3.org/2000/svg">
<path fill-rule="evenodd" clip-rule="evenodd" d="M75.46 1.56845C74.7126 2.1637 74.4495 4.51391 74.2834 12.0845L74.0697 21.8336H71.5947C70.234 21.8336 68.8868 22.2895 68.6013 22.8459C68.3158 23.4031 67.938 26.2174 67.7615 29.1005L67.4408 34.3419L64.6937 35.0246C62.8384 35.4854 61.1813 36.6727 59.5884 38.6843C58.2463 40.3786 54.3163 43.4366 50.467 45.782C38.4562 53.0999 29.2387 61.0057 20.4791 71.4999L15.8595 77.0353L11.7677 77.1721C8.40097 77.2847 7.26994 77.6994 5.38704 79.5143C2.76573 82.0386 0.400391 87.5991 0.400391 91.2338C0.400391 94.0367 1.96894 99.2975 3.42009 101.359C4.19122 102.455 4.41383 105.579 4.51776 116.747C4.63837 129.693 4.78271 131.253 6.41414 137.239C7.38542 140.802 9.21764 146.086 10.4866 148.982C12.7878 154.234 20.4971 164.639 22.7598 165.546C23.5348 165.857 24.2937 167.655 24.9975 170.849C26.346 176.974 26.3338 178.137 24.9218 178.137C24.2944 178.137 23.1396 178.704 22.3556 179.398C21.0078 180.589 20.9295 181.229 20.9295 191.041C20.9295 199.716 21.104 201.607 21.9912 202.536C22.8689 203.454 30.1041 203.633 63.5864 203.565C85.8798 203.521 104.888 203.241 105.828 202.943L107.537 202.402V191.209V180.016L105.903 179.077C105.004 178.559 103.836 178.137 103.308 178.137C102.546 178.137 102.438 177.505 102.786 175.1C103.028 173.43 103.474 171.219 103.777 170.188C104.767 166.827 104.419 163.731 102.903 162.391C101.733 161.355 99.2654 161.13 89.1099 161.13C82.3083 161.13 76.743 160.957 76.743 160.746C76.743 160.535 77.3781 158.713 78.1538 156.697L79.5651 153.031H90.5213C102.468 153.031 104.329 152.431 104.329 148.577C104.329 144.676 102.523 144.122 89.7822 144.122C82.81 144.122 77.4756 144.474 76.5736 144.993C75.585 145.562 74.0191 148.509 72.0566 153.497L69.0529 161.13H61.7516H54.4503L55.6718 158.013C57.2641 153.95 57.8113 147.782 56.9414 143.71C55.3613 136.314 49.7671 129.457 44.3455 128.27C38.7257 127.04 35.4192 122.638 34.48 115.134C33.2508 105.322 35.9908 96.1099 42.8488 86.9966C48.4911 79.4973 60.7188 68.9877 66.3181 66.8246C67.7262 66.2803 67.7615 66.4148 67.7615 72.377C67.7615 77.9998 67.8892 78.5918 69.3654 79.8131C70.8762 81.0627 70.9692 81.5551 70.9692 88.3166C70.9692 95.0004 71.0751 95.5811 72.5102 96.7683C73.9164 97.9313 74.071 98.6845 74.2744 105.356C74.5656 114.908 74.6292 114.968 84.4414 114.968C94.2223 114.968 94.3134 114.883 94.6175 105.525C94.8221 99.2417 95.0345 98.167 96.3817 96.5902C97.7635 94.9745 97.9137 94.1274 97.9137 87.9692C97.9137 81.5778 98.0163 81.0546 99.5175 79.8131L101.121 78.4866V51.1319C101.121 30.9356 100.92 23.523 100.351 22.8054C99.9281 22.2709 98.5096 21.8336 97.199 21.8336H94.8163L94.6008 12.6417C94.4539 6.38631 94.1042 3.02296 93.505 2.11349C92.7705 0.99993 91.277 0.779646 84.5236 0.789364C80.0675 0.796653 75.9892 1.14651 75.46 1.56845ZM87.6491 15.3547V21.8336H84.4414H81.2338V15.3547V8.87582H84.4414H87.6491V15.3547ZM94.579 34.184L94.3852 38.4357L90.0305 38.8407C85.7065 39.2432 84.4741 40.1227 84.4511 42.826C84.428 45.5908 86.4603 46.9393 90.6515 46.9393H94.7387L94.5616 59.6946L94.3852 72.4499H84.4414H74.4976L74.309 67.0554C74.1384 62.1638 74.2763 61.4649 75.7878 59.5569C80.4197 53.7097 80.3998 44.3185 75.7448 38.7977C74.5509 37.3821 74.1769 36.1033 74.1769 33.4356V29.9322H84.4748H94.7734L94.579 34.184ZM70.8961 44.3072C74.4925 48.0763 72.4447 55.0379 67.7397 55.0379C64.7065 55.0379 62.6293 52.6107 62.6293 49.0659C62.6293 43.8934 67.7109 40.9682 70.8961 44.3072ZM56.5661 53.6206C56.8073 54.6224 57.7215 56.6511 58.5985 58.1283C59.4755 59.6047 60.0913 60.9183 59.9675 61.0454C59.8437 61.1734 57.7196 62.7542 55.2465 64.5578C46.0514 71.2666 39.9606 77.5568 35.2761 85.1825C31.0529 92.0582 28.6837 98.6772 27.8446 105.948L27.1145 112.271L24.1821 114.227C21.9117 115.741 21.2034 116.696 21.0437 118.458C20.6607 122.673 23.2775 124.283 26.6616 121.916C28.1673 120.863 28.3001 120.985 30.3626 125.309L32.5015 129.793L29.646 133.247C28.0756 135.147 26.3062 137.883 25.7147 139.328C24.3354 142.695 23.7984 150.138 24.6523 154.043C25.018 155.714 25.0828 157.08 24.796 157.08C24.5099 157.08 22.6623 154.881 20.6915 152.194C14.1818 143.317 10.6649 130.537 10.6649 115.757C10.6649 106.86 10.8985 106.059 13.4948 106.059C16.4381 106.059 21.0937 102.061 22.5622 98.2722C24.0794 94.3566 24.1436 88.6851 22.7104 85.1436C21.8847 83.1019 21.7911 82.122 22.3248 81.0943C23.4418 78.9417 31.7349 70.0081 36.6631 65.6495C41.0044 61.8099 54.7454 51.7984 55.675 51.7984C55.9239 51.7984 56.3249 52.6188 56.5661 53.6206ZM90.8568 85.436V89.9185L84.281 89.6877L77.7053 89.4569L77.5116 85.2052L77.3172 80.9534H84.0873H90.8568V85.436ZM15.5053 86.9909C16.4984 88.2438 17.0803 89.904 17.0803 91.4816C17.0803 94.5558 14.586 97.9605 12.3336 97.9605C9.83544 97.9605 7.24364 94.6611 7.24364 91.4816C7.24364 89.5622 7.74211 88.2543 8.9899 86.8994C11.2378 84.4585 13.5255 84.4909 15.5053 86.9909ZM87.6491 102.01V106.059H84.4414H81.2338V102.01V97.9605H84.4414H87.6491V102.01ZM44.9229 137.153C47.4544 138.488 50.127 142.69 50.7301 146.282C51.4422 150.529 50.077 155.034 47.1022 158.248C44.7458 160.794 44.0241 161.13 40.9018 161.13C36.5419 161.13 33.6563 158.924 31.826 154.192C30.396 150.495 30.2298 147.732 31.237 144.378C33.2855 137.553 39.4808 134.282 44.9229 137.153ZM96.6267 171.05C96.6248 171.608 96.3227 173.43 95.9551 175.1L95.2872 178.137H64.2793H33.2707L32.5535 174.538C32.1583 172.56 31.8356 170.738 31.8356 170.489C31.8356 170.241 46.4145 170.038 64.2331 170.038C89.7251 170.038 96.63 170.253 96.6267 171.05ZM101.121 191.079C101.121 194.6 100.936 195.171 99.6612 195.575C98.858 195.83 82.3308 195.928 62.9333 195.793L27.6656 195.549L27.4719 191.297L27.2775 187.045H64.1997H101.121V191.079Z" fill="#7A5C3E"/>
<path fill-rule="evenodd" clip-rule="evenodd" d="M155.296 22.0986C152.968 22.3151 149.617 24.3994 147.967 26.6576C146.548 28.6012 146.122 28.71 142.941 27.9472C140.157 27.2795 139.029 27.425 137.266 28.6805C136.055 29.5426 134.93 30.8102 134.765 31.4975C134.519 32.5225 133.52 32.5212 129.227 31.4916C126.175 30.7596 122.947 30.4923 121.494 30.851C116.568 32.068 117.061 30.5447 104.156 84.3604L92.5278 132.849L93.7976 135.943L95.0675 139.038L122.786 145.925L150.504 152.812L151.187 149.96L151.871 147.108L125.262 140.726C105.435 135.972 98.5119 134.05 98.102 133.188C97.6866 132.315 100.339 120.407 108.934 84.5667C122.033 29.9458 119.919 35.2387 127.87 37.1452C131.69 38.0613 132.51 38.5193 132.562 39.7652C132.597 40.5954 133.024 42.236 133.511 43.4094C134.386 45.5188 134.592 45.5905 151.421 49.6262C169.867 54.0497 170.797 54.0678 172.669 50.0435C173.532 48.1869 173.777 48.1543 178.45 49.2747C186.147 51.1206 186.081 50.4711 180.804 72.4745L176.446 90.6478L178.762 91.2031L181.076 91.7582L185.623 71.9364L190.17 52.1153L188.671 48.9646C187.223 45.918 186.974 45.7576 181.08 44.059C175.797 42.5357 174.983 42.0887 174.962 40.692C174.914 37.6254 172.578 35.0571 169.033 34.1711C166.028 33.4213 165.637 33.0645 165.006 30.5011C163.684 25.1275 159.71 21.6898 155.296 22.0986ZM158.795 28.5034C159.648 30.2956 158.633 33.2588 156.956 33.8706C154.05 34.9315 152.146 30.8329 154.245 28.0339C155.415 26.4722 157.954 26.7342 158.795 28.5034ZM134.499 61.3699C132.39 63.4482 130.463 65.1 130.215 65.0404C129.967 64.981 129.174 63.6206 128.452 62.0176C126.889 58.5465 124.118 57.7454 123.122 60.4764C122.417 62.4068 126.787 72.7599 128.477 73.1653C129.297 73.3619 133.331 69.8552 140.569 62.653C141.957 61.2717 141.503 58.3519 139.838 57.9526C138.782 57.6992 137.186 58.7207 134.499 61.3699ZM146.636 68.179C145.802 69.2917 145.645 70.0221 146.023 71.0402C146.439 72.1634 148.633 72.8705 158.323 75.0029C168.492 77.241 170.255 77.4363 171.123 76.4172C171.854 75.5599 171.98 74.8272 171.581 73.7509C171.116 72.4974 169.215 71.8306 159.393 69.4753C148.304 66.816 147.703 66.7548 146.636 68.179ZM132.346 83.288C131.73 83.6272 127.702 87.3676 124.18 90.8706C124.014 91.035 123.072 89.5235 122.086 87.5114C120.09 83.4393 118.132 82.7374 117.05 85.7066C116.199 88.0402 120.489 97.7599 122.548 98.164C123.82 98.4136 133.202 90.0925 134.931 87.181C136.232 84.9887 134.366 82.177 132.346 83.288ZM165.503 92.1482C164.428 93.0615 163.693 94.9352 162.566 99.6377C161.224 105.23 161.192 105.989 162.265 106.645C163.439 107.363 163.305 108.059 156.608 135.986C148.694 168.986 148.678 169.149 152.889 172.535C156.263 175.248 159.857 174.897 162.605 171.588C164.349 169.487 164.906 167.511 171.467 140.162C178.305 111.658 178.501 110.975 179.874 110.868C181.13 110.77 181.442 110.079 182.817 104.346C184.952 95.4448 184.789 95.2109 174.773 92.8091C168.01 91.1871 166.74 91.0962 165.503 92.1482ZM141.523 93.0182C139.474 94.083 139.218 94.8117 140.181 96.8381C140.77 98.076 142.63 98.7673 150.351 100.619L159.801 102.885L160.311 99.8641L160.822 96.8432L152.035 94.4832C144.96 92.5824 142.911 92.297 141.523 93.0182ZM175.588 114.358L174.62 118.397L169.076 117.067L163.532 115.738L164.372 112.238C164.833 110.313 165.465 108.542 165.775 108.304C166.085 108.065 168.638 108.421 171.448 109.095L176.557 110.32L175.588 114.358ZM125.091 109.723C123.839 110.715 121.743 112.609 120.434 113.932L118.051 116.338L116.078 112.674C114.992 110.658 113.87 108.953 113.584 108.885C112.722 108.678 111.053 110.243 110.739 111.552C110.396 112.983 115.305 123.818 116.418 124.085C117.173 124.266 126.121 116.115 128.174 113.376C130.783 109.897 128.414 107.091 125.091 109.723ZM166.626 142.437C161.863 163.083 160.851 165.961 159.274 163.31C158.739 162.409 159.577 158.116 163.389 142.22C166.022 131.242 168.443 122.056 168.768 121.804C169.095 121.553 169.79 121.565 170.314 121.831C171.138 122.248 170.641 125.023 166.626 142.437ZM134.503 118.671C133.659 119.449 133.438 120.16 133.701 121.255C134.012 122.551 135.635 123.175 145.19 125.667L156.317 128.569L157 125.723L157.682 122.877L146.675 120.237C137.427 118.019 135.481 117.769 134.503 118.671Z" fill="#474A51"/>
<path fill-rule="evenodd" clip-rule="evenodd" d="M155.296 22.0986C152.968 22.3151 149.617 24.3994 147.967 26.6576C146.548 28.6012 146.122 28.71 142.941 27.9472C140.157 27.2795 139.029 27.425 137.266 28.6805C136.055 29.5426 134.93 30.8102 134.765 31.4975C134.519 32.5225 133.52 32.5212 129.227 31.4916C126.175 30.7596 122.947 30.4923 121.494 30.851C116.568 32.068 117.061 30.5447 104.156 84.3604L92.5278 132.849L93.7976 135.943L95.0675 139.038L122.786 145.925L150.504 152.812L151.187 149.96L151.871 147.108L125.262 140.726C105.435 135.972 98.5119 134.05 98.102 133.188C97.6866 132.315 100.339 120.407 108.934 84.5667C122.033 29.9458 119.919 35.2387 127.87 37.1452C131.69 38.0613 132.51 38.5193 132.562 39.7652C132.597 40.5954 133.024 42.236 133.511 43.4094C134.386 45.5188 134.592 45.5905 151.421 49.6262C169.867 54.0497 170.797 54.0678 172.669 50.0435C173.532 48.1869 173.777 48.1543 178.45 49.2747C186.147 51.1206 186.081 50.4711 180.804 72.4745L176.446 90.6478L178.762 91.2031L181.076 91.7582L185.623 71.9364L190.17 52.1153L188.671 48.9646C187.223 45.918 186.974 45.7576 181.08 44.059C175.797 42.5357 174.983 42.0887 174.962 40.692C174.914 37.6254 172.578 35.0571 169.033 34.1711C166.028 33.4213 165.637 33.0645 165.006 30.5011C163.684 25.1275 159.71 21.6898 155.296 22.0986ZM158.795 28.5034C159.648 30.2956 158.633 33.2588 156.956 33.8706C154.05 34.9315 152.146 30.8329 154.245 28.0339C155.415 26.4722 157.954 26.7342 158.795 28.5034ZM134.499 61.3699C132.39 63.4482 130.463 65.1 130.215 65.0404C129.967 64.981 129.174 63.6206 128.452 62.0176C126.889 58.5465 124.118 57.7454 123.122 60.4764C122.417 62.4068 126.787 72.7599 128.477 73.1653C129.297 73.3619 133.331 69.8552 140.569 62.653C141.957 61.2717 141.503 58.3519 139.838 57.9526C138.782 57.6992 137.186 58.7207 134.499 61.3699ZM146.636 68.179C145.802 69.2917 145.645 70.0221 146.023 71.0402C146.439 72.1634 148.633 72.8705 158.323 75.0029C168.492 77.241 170.255 77.4363 171.123 76.4172C171.854 75.5599 171.98 74.8272 171.581 73.7509C171.116 72.4974 169.215 71.8306 159.393 69.4753C148.304 66.816 147.703 66.7548 146.636 68.179ZM132.346 83.288C131.73 83.6272 127.702 87.3676 124.18 90.8706C124.014 91.035 123.072 89.5235 122.086 87.5114C120.09 83.4393 118.132 82.7374 117.05 85.7066C116.199 88.0402 120.489 97.7599 122.548 98.164C123.82 98.4136 133.202 90.0925 134.931 87.181C136.232 84.9887 134.366 82.177 132.346 83.288ZM165.503 92.1482C164.428 93.0615 163.693 94.9352 162.566 99.6377C161.224 105.23 161.192 105.989 162.265 106.645C163.439 107.363 163.305 108.059 156.608 135.986C148.694 168.986 148.678 169.149 152.889 172.535C156.263 175.248 159.857 174.897 162.605 171.588C164.349 169.487 164.906 167.511 171.467 140.162C178.305 111.658 178.501 110.975 179.874 110.868C181.13 110.77 181.442 110.079 182.817 104.346C184.952 95.4448 184.789 95.2109 174.773 92.8091C168.01 91.1871 166.74 91.0962 165.503 92.1482ZM141.523 93.0182C139.474 94.083 139.218 94.8117 140.181 96.8381C140.77 98.076 142.63 98.7673 150.351 100.619L159.801 102.885L160.311 99.8641L160.822 96.8432L152.035 94.4832C144.96 92.5824 142.911 92.297 141.523 93.0182ZM175.588 114.358L174.62 118.397L169.076 117.067L163.532 115.738L164.372 112.238C164.833 110.313 165.465 108.542 165.775 108.304C166.085 108.065 168.638 108.421 171.448 109.095L176.557 110.32L175.588 114.358ZM125.091 109.723C123.839 110.715 121.743 112.609 120.434 113.932L118.051 116.338L116.078 112.674C114.992 110.658 113.87 108.953 113.584 108.885C112.722 108.678 111.053 110.243 110.739 111.552C110.396 112.983 115.305 123.818 116.418 124.085C117.173 124.266 126.121 116.115 128.174 113.376C130.783 109.897 128.414 107.091 125.091 109.723ZM166.626 142.437C161.863 163.083 160.851 165.961 159.274 163.31C158.739 162.409 159.577 158.116 163.389 142.22C166.022 131.242 168.443 122.056 168.768 121.804C169.095 121.553 169.79 121.565 170.314 121.831C171.138 122.248 170.641 125.023 166.626 142.437ZM134.503 118.671C133.659 119.449 133.438 120.16 133.701 121.255C134.012 122.551 135.635 123.175 145.19 125.667L156.317 128.569L157 125.723L157.682 122.877L146.675 120.237C137.427 118.019 135.481 117.769 134.503 118.671Z" fill="#7A5C3E"/>
</svg>
